<mxfile host="65bd71144e" modified="2021-02-22T19:58:25.135Z" agent="5.0 (Windows NT 10.0; Win64; x64) AppleWebKit/537.36 (KHTML, like Gecko) Code/1.53.2 Chrome/87.0.4280.141 Electron/11.2.1 Safari/537.36" etag="Pk5njszRUAnxVuAqV28A" version="14.2.4" type="embed">
    <diagram id="_w8c44cjkvZutTlIz6G8" name="Page-1">
        <mxGraphModel dx="721" dy="615" grid="1" gridSize="10" guides="1" tooltips="1" connect="1" arrows="1" fold="1" page="1" pageScale="1" pageWidth="850" pageHeight="1100" math="0" shadow="0">
            <root>
                <mxCell id="0"/>
                <mxCell id="1" parent="0"/>
                <mxCell id="19" style="edgeStyle=orthogonalEdgeStyle;rounded=0;orthogonalLoop=1;jettySize=auto;html=1;" edge="1" parent="1" source="4" target="17">
                    <mxGeometry relative="1" as="geometry"/>
                </mxCell>
                <mxCell id="4" value="" style="rounded=0;whiteSpace=wrap;html=1;labelBackgroundColor=none;strokeWidth=2;fontSize=14;rotation=90;fillColor=none;dashed=1;strokeColor=#0073E6;" parent="1" vertex="1">
                    <mxGeometry x="212.75" y="81.45" width="425.8" height="747.1" as="geometry"/>
                </mxCell>
                <mxCell id="6" value="Python packages&lt;br&gt;&amp;nbsp;&lt;br&gt;Flask framework" style="text;html=1;strokeColor=none;fillColor=none;align=center;verticalAlign=middle;whiteSpace=wrap;rounded=0;dashed=1;labelBackgroundColor=none;fontSize=14;" parent="1" vertex="1">
                    <mxGeometry x="332.5" y="590" width="155" height="20" as="geometry"/>
                </mxCell>
                <mxCell id="8" value="" style="shape=image;html=1;verticalAlign=top;verticalLabelPosition=bottom;labelBackgroundColor=#ffffff;imageAspect=0;aspect=fixed;image=https://cdn4.iconfinder.com/data/icons/logos-and-brands/512/267_Python_logo-128.png;dashed=1;strokeColor=#0066CC;strokeWidth=1;fillColor=none;fontSize=14;" parent="1" vertex="1">
                    <mxGeometry x="370" y="490" width="80" height="80" as="geometry"/>
                </mxCell>
                <mxCell id="9" value="Gunicorn server" style="text;html=1;strokeColor=none;fillColor=none;align=center;verticalAlign=middle;whiteSpace=wrap;rounded=0;dashed=1;labelBackgroundColor=none;fontSize=17;fontStyle=1" parent="1" vertex="1">
                    <mxGeometry x="67.1" y="620" width="140" height="11.77" as="geometry"/>
                </mxCell>
                <mxCell id="10" value="" style="outlineConnect=0;fontColor=#ffffff;fillColor=#1ba1e2;strokeColor=#006EAF;dashed=0;verticalLabelPosition=bottom;verticalAlign=top;align=center;html=1;fontSize=12;fontStyle=0;aspect=fixed;pointerEvents=1;shape=mxgraph.aws4.template;" vertex="1" parent="1">
                    <mxGeometry x="510" y="270" width="75" height="90" as="geometry"/>
                </mxCell>
                <mxCell id="11" value="HTML Templates renders content on web page&lt;br&gt;&lt;ul&gt;&lt;li&gt;index.html&lt;/li&gt;&lt;li&gt;layout.html&lt;/li&gt;&lt;/ul&gt;" style="text;html=1;strokeColor=none;fillColor=none;align=center;verticalAlign=middle;whiteSpace=wrap;rounded=0;" vertex="1" parent="1">
                    <mxGeometry x="455" y="370" width="170" height="90" as="geometry"/>
                </mxCell>
                <mxCell id="16" style="edgeStyle=orthogonalEdgeStyle;rounded=0;orthogonalLoop=1;jettySize=auto;html=1;" edge="1" parent="1" source="13" target="10">
                    <mxGeometry relative="1" as="geometry">
                        <Array as="points">
                            <mxPoint x="390" y="315"/>
                            <mxPoint x="390" y="315"/>
                        </Array>
                    </mxGeometry>
                </mxCell>
                <mxCell id="13" value="" style="html=1;dashed=0;whitespace=wrap;fillColor=#2875E2;strokeColor=#ffffff;points=[[0.005,0.63,0],[0.1,0.2,0],[0.9,0.2,0],[0.5,0,0],[0.995,0.63,0],[0.72,0.99,0],[0.5,1,0],[0.28,0.99,0]];shape=mxgraph.kubernetes.icon;prIcon=api" vertex="1" parent="1">
                    <mxGeometry x="250" y="260" width="102" height="88" as="geometry"/>
                </mxCell>
                <mxCell id="14" value="app.py uses Trello API for card info&lt;br&gt;&lt;br&gt;card.py updates card status" style="text;html=1;strokeColor=none;fillColor=none;align=center;verticalAlign=middle;whiteSpace=wrap;rounded=0;" vertex="1" parent="1">
                    <mxGeometry x="230" y="390" width="140" height="20" as="geometry"/>
                </mxCell>
                <mxCell id="17" value="" style="html=1;aspect=fixed;strokeColor=none;shadow=0;align=center;verticalAlign=top;shape=mxgraph.gcp2.website;labelBackgroundColor=#333333;fillColor=#2BC9F1;" vertex="1" parent="1">
                    <mxGeometry x="350" y="828.55" width="150" height="145.5" as="geometry"/>
                </mxCell>
                <mxCell id="18" value="Hosted Web Page" style="text;html=1;strokeColor=none;fillColor=none;align=center;verticalAlign=middle;whiteSpace=wrap;rounded=0;dashed=1;labelBackgroundColor=none;fontSize=14;" vertex="1" parent="1">
                    <mxGeometry x="350" y="974.05" width="90" height="20" as="geometry"/>
                </mxCell>
            </root>
        </mxGraphModel>
    </diagram>
</mxfile>